<svg aria-hidden="true" style="position:absolute;width:0;height:0;overflow:hidden" xmlns="http://www.w3.org/2000/svg">
    <defs>
        <symbol id="eye" viewBox="0 0 32 32">
            <path d="M16 11c-2.761 0-5 2.239-5 5s2.239 5 5 5c2.761 0 5-2.239 5-5s-2.239-5-5-5zM13 16c0-1.657 1.343-3 3-3s3 1.343 3 3c0 1.657-1.343 3-3 3s-3-1.343-3-3z"></path>
            <path d="M16 4.333c-6.019 0-10.073 3.606-12.426 6.662l-0.042 0.055c-0.532 0.691-1.022 1.328-1.355 2.080-0.356 0.806-0.51 1.684-0.51 2.869s0.154 2.063 0.51 2.869c0.333 0.753 0.823 1.389 1.355 2.080l0.042 0.055c2.353 3.057 6.407 6.663 12.426 6.663s10.073-3.606 12.426-6.663l0.042-0.055c0.532-0.691 1.022-1.328 1.355-2.080 0.356-0.806 0.51-1.684 0.51-2.869s-0.154-2.063-0.51-2.869c-0.333-0.753-0.823-1.389-1.355-2.080l-0.042-0.055c-2.353-3.057-6.407-6.662-12.426-6.662zM5.159 12.216c2.173-2.822 5.708-5.882 10.841-5.882s8.669 3.060 10.841 5.882c0.585 0.76 0.927 1.214 1.153 1.724 0.211 0.477 0.34 1.059 0.34 2.061s-0.129 1.584-0.34 2.061c-0.225 0.51-0.568 0.964-1.153 1.724-2.173 2.823-5.708 5.882-10.841 5.882s-8.668-3.060-10.841-5.882c-0.585-0.76-0.927-1.214-1.153-1.724-0.211-0.477-0.34-1.059-0.34-2.061s0.129-1.584 0.34-2.061c0.225-0.51 0.568-0.964 1.153-1.724z"></path>
        </symbol>
        <symbol id="eye-closed" viewBox="0 0 32 32">
            <path d="M3.586 8.939c-0.218-0.508-0.805-0.743-1.313-0.525s-0.743 0.805-0.525 1.313l1.838-0.788zM20.783 17.772v0zM12.055 18.317c0.301-0.463 0.17-1.082-0.293-1.383s-1.082-0.17-1.384 0.293l1.676 1.091zM8.495 20.121c-0.301 0.463-0.17 1.082 0.293 1.383s1.082 0.17 1.384-0.293l-1.676-1.091zM30.253 9.727c0.217-0.508-0.018-1.095-0.525-1.313s-1.095 0.018-1.313 0.525l1.838 0.788zM25.333 14.838v0zM26.626 17.546c0.391 0.391 1.024 0.391 1.414 0s0.391-1.024 0-1.414l-1.414 1.414zM15 22c0 0.552 0.448 1 1 1s1-0.448 1-1h-2zM21.829 21.212c0.301 0.463 0.921 0.594 1.383 0.293s0.594-0.921 0.293-1.383l-1.676 1.091zM7.374 15.546c0.391-0.391 0.391-1.024 0-1.414s-1.024-0.391-1.414 0l1.414 1.414zM3.96 16.131c-0.391 0.391-0.391 1.024 0 1.414s1.024 0.391 1.414 0l-1.414-1.414zM16 17.667c-4.299 0-7.385-2.141-9.434-4.347-1.024-1.103-1.775-2.209-2.269-3.039-0.247-0.414-0.428-0.757-0.546-0.993-0.059-0.118-0.102-0.209-0.13-0.268-0.014-0.030-0.024-0.052-0.030-0.065-0.003-0.007-0.005-0.011-0.006-0.014-0.001-0.001-0.001-0.002-0.001-0.002s0 0 0 0 0 0 0 0 0 0.001-0.919 0.395-0.919 0.394-0.919 0.395 0 0.001 0 0.001 0.001 0.002 0.001 0.003 0.002 0.005 0.004 0.008 0.007 0.015 0.012 0.026c0.010 0.022 0.024 0.052 0.041 0.091 0.036 0.077 0.088 0.187 0.156 0.324 0.137 0.274 0.342 0.661 0.616 1.122 0.547 0.92 1.38 2.147 2.522 3.377 2.284 2.46 5.865 4.986 10.899 4.986v-2zM20.417 16.841c-1.294 0.509-2.761 0.826-4.417 0.826v2c1.918 0 3.633-0.368 5.149-0.965l-0.733-1.861zM10.379 17.226l-1.884 2.895 1.676 1.091 1.884-2.895-1.676-1.091zM29.333 9.333c-0.919-0.394-0.919-0.394-0.919-0.394s0-0 0-0 0-0 0-0 0-0 0-0-0.001 0.001-0.001 0.003-0.004 0.009-0.008 0.018c-0.008 0.017-0.020 0.045-0.038 0.083-0.035 0.075-0.090 0.189-0.164 0.335-0.149 0.293-0.378 0.714-0.69 1.214-0.625 1.003-1.572 2.305-2.865 3.518l1.369 1.458c1.452-1.363 2.505-2.813 3.194-3.919 0.345-0.554 0.602-1.026 0.774-1.363 0.086-0.169 0.151-0.304 0.195-0.399 0.022-0.048 0.039-0.085 0.051-0.112 0.006-0.013 0.011-0.024 0.014-0.032 0.002-0.004 0.003-0.007 0.004-0.010 0.001-0.001 0.001-0.002 0.001-0.003s0-0.001 0.001-0.001 0-0 0-0.001 0-0-0.919-0.394zM24.649 14.109c-1.145 1.075-2.55 2.070-4.232 2.732l0.733 1.861c1.965-0.773 3.58-1.925 4.869-3.135l-1.369-1.458zM24.626 15.546l2 2 1.414-1.414-2-2-1.414 1.414zM15 18.667v3.333h2v-3.333h-2zM19.945 18.317l1.884 2.895 1.676-1.091-1.884-2.895-1.676 1.091zM5.96 14.131l-2 2 1.414 1.414 2-2-1.414-1.414z"></path>
        </symbol>

        <symbol id="user" viewBox="0 0 24 24">
            <path d="M14.3365 12.3466L14.0765 11.9195C13.9082 12.022 13.8158 12.2137 13.8405 12.4092C13.8651 12.6046 14.0022 12.7674 14.1907 12.8249L14.3365 12.3466ZM9.6634 12.3466L9.80923 12.8249C9.99769 12.7674 10.1348 12.6046 10.1595 12.4092C10.1841 12.2137 10.0917 12.022 9.92339 11.9195L9.6634 12.3466ZM4.06161 19.002L3.56544 18.9402L4.06161 19.002ZM19.9383 19.002L20.4345 18.9402L19.9383 19.002ZM16 8.5C16 9.94799 15.2309 11.2168 14.0765 11.9195L14.5965 12.7737C16.0365 11.8971 17 10.3113 17 8.5H16ZM12 4.5C14.2091 4.5 16 6.29086 16 8.5H17C17 5.73858 14.7614 3.5 12 3.5V4.5ZM7.99996 8.5C7.99996 6.29086 9.79082 4.5 12 4.5V3.5C9.23854 3.5 6.99996 5.73858 6.99996 8.5H7.99996ZM9.92339 11.9195C8.76904 11.2168 7.99996 9.948 7.99996 8.5H6.99996C6.99996 10.3113 7.96342 11.8971 9.40342 12.7737L9.92339 11.9195ZM9.51758 11.8683C6.36083 12.8309 3.98356 15.5804 3.56544 18.9402L4.55778 19.0637C4.92638 16.1018 7.02381 13.6742 9.80923 12.8249L9.51758 11.8683ZM3.56544 18.9402C3.45493 19.8282 4.19055 20.5 4.99996 20.5V19.5C4.70481 19.5 4.53188 19.2719 4.55778 19.0637L3.56544 18.9402ZM4.99996 20.5H19V19.5H4.99996V20.5ZM19 20.5C19.8094 20.5 20.545 19.8282 20.4345 18.9402L19.4421 19.0637C19.468 19.2719 19.2951 19.5 19 19.5V20.5ZM20.4345 18.9402C20.0164 15.5804 17.6391 12.8309 14.4823 11.8683L14.1907 12.8249C16.9761 13.6742 19.0735 16.1018 19.4421 19.0637L20.4345 18.9402Z"/>
        </symbol>

        <symbol id="download" viewBox="0 0 25 25">
            <path d="M5 12V18C5 18.5523 5.44772 19 6 19H18C18.5523 19 19 18.5523 19 18V12" stroke-linecap="round"
                  stroke-linejoin="round"/>
            <path d="M12 3L12 15M12 15L16 11M12 15L8 11" stroke-linecap="round" stroke-linejoin="round"/>
        </symbol>

        <symbol id="logout" viewBox="0 0 25 25">
            <path d="M19.4422 10.3492L14.8796 5.02623C14.5775 4.67378 14 4.88743 14 5.35163V8C11 8 4 11 4 20C6 15 10 14 14 14V16.6484C14 17.1126 14.5775 17.3262 14.8796 16.9738L19.4422 11.6508C19.7632 11.2763 19.7632 10.7237 19.4422 10.3492Z"
                  stroke-linecap="round" stroke-linejoin="round"/>
        </symbol>

        <symbol id="refresh" viewBox="0 0 25 25">
            <path d="M21.3687 13.5827C21.4144 13.3104 21.2306 13.0526 20.9583 13.0069C20.686 12.9612 20.4281 13.1449 20.3825 13.4173L21.3687 13.5827ZM12 20.5C7.30558 20.5 3.5 16.6944 3.5 12H2.5C2.5 17.2467 6.75329 21.5 12 21.5V20.5ZM3.5 12C3.5 7.30558 7.30558 3.5 12 3.5V2.5C6.75329 2.5 2.5 6.75329 2.5 12H3.5ZM12 3.5C15.3367 3.5 18.2252 5.4225 19.6167 8.22252L20.5122 7.77748C18.9583 4.65062 15.7308 2.5 12 2.5V3.5ZM20.3825 13.4173C19.7081 17.437 16.2112 20.5 12 20.5V21.5C16.7077 21.5 20.6148 18.0762 21.3687 13.5827L20.3825 13.4173Z"/>
            <path d="M20.4716 2.42157V8.07843H14.8147" stroke-linecap="round" stroke-linejoin="round"/>
        </symbol>

        <symbol id="home" viewBox="0 0 25 25">
            <path d="M3 10C3 6.22876 3 4.34315 4.17157 3.17157C5.34315 2 7.22876 2 11 2H13C16.7712 2 18.6569 2 19.8284 3.17157C21 4.34315 21 6.22876 21 10V14C21 17.7712 21 19.6569 19.8284 20.8284C18.6569 22 16.7712 22 13 22H11C7.22876 22 5.34315 22 4.17157 20.8284C3 19.6569 3 17.7712 3 14V10Z"
                  stroke-width="1.5"/>
            <path d="M8 12H16" stroke-width="1.5" stroke-linecap="round"/>
            <path d="M8 8H16" stroke-width="1.5" stroke-linecap="round"/>
            <path d="M8 16H13" stroke-width="1.5" stroke-linecap="round"/>
        </symbol>


        <symbol id="info" viewBox="0 0 25 25">
            <path d="M13 8C13.8284 8 14.5 7.32843 14.5 6.5C14.5 5.67157 13.8284 5 13 5C12.1716 5 11.5 5.67157 11.5 6.5C11.5 7.32843 12.1716 8 13 8Z" />
            <path d="M11.5 10C11.5 9.44772 11.9477 9 12.5 9H13.5C14.0523 9 14.5 9.44771 14.5 10V18C14.5 18.5523 14.0523 19 13.5 19H12.5C11.9477 19 11.5 18.5523 11.5 18V10Z" />
        </symbol>


        <symbol id="github" viewBox="0 0 24 24">

            <path d="M16 22.0268V19.1568C16.0375 18.68 15.9731 18.2006 15.811 17.7506C15.6489 17.3006 15.3929 16.8902 15.06 16.5468C18.2 16.1968 21.5 15.0068 21.5 9.54679C21.4997 8.15062 20.9627 6.80799 20 5.79679C20.4558 4.5753 20.4236 3.22514 19.91 2.02679C19.91 2.02679 18.73 1.67679 16 3.50679C13.708 2.88561 11.292 2.88561 8.99999 3.50679C6.26999 1.67679 5.08999 2.02679 5.08999 2.02679C4.57636 3.22514 4.54413 4.5753 4.99999 5.79679C4.03011 6.81549 3.49251 8.17026 3.49999 9.57679C3.49999 14.9968 6.79998 16.1868 9.93998 16.5768C9.61098 16.9168 9.35725 17.3222 9.19529 17.7667C9.03334 18.2112 8.96679 18.6849 8.99999 19.1568V22.0268"
                  stroke-linecap="round" stroke-linejoin="round"></path>
            <path d="M9 20.0267C6 20.9999 3.5 20.0267 2 17.0267" stroke-linecap="round" stroke-linejoin="round"></path>

        </symbol>

        <symbol id="linkedin" viewBox="0 0 24 24">

            <path d="M6.5 8C7.32843 8 8 7.32843 8 6.5C8 5.67157 7.32843 5 6.5 5C5.67157 5 5 5.67157 5 6.5C5 7.32843 5.67157 8 6.5 8Z" ></path>
            <path d="M5 10C5 9.44772 5.44772 9 6 9H7C7.55228 9 8 9.44771 8 10V18C8 18.5523 7.55228 19 7 19H6C5.44772 19 5 18.5523 5 18V10Z" ></path>
            <path d="M11 19H12C12.5523 19 13 18.5523 13 18V13.5C13 12 16 11 16 13V18.0004C16 18.5527 16.4477 19 17 19H18C18.5523 19 19 18.5523 19 18V12C19 10 17.5 9 15.5 9C13.5 9 13 10.5 13 10.5V10C13 9.44771 12.5523 9 12 9H11C10.4477 9 10 9.44772 10 10V18C10 18.5523 10.4477 19 11 19Z"></path>




        </symbol>


    </defs>
</svg>